<?xml version="1.0" encoding="iso-8859-1"?>
<!-- Generator: Adobe Illustrator 19.0.0, SVG Export Plug-In . SVG Version: 6.00 Build 0)  -->
<svg xmlns="http://www.w3.org/2000/svg" xmlns:xlink="http://www.w3.org/1999/xlink" version="1.1" id="Layer_1" x="0px" y="0px" viewBox="0 0 512 512" style="enable-background:new 0 0 512 512;" xml:space="preserve">
<path style="fill:#2DA555;" d="M427.811,433.372c39.749,0,72.31,30.682,75.344,69.653h-86.788  c-3.733-22.811-21.183-41.008-43.614-45.832C386.543,442.539,406.102,433.372,427.811,433.372z"/>
<path style="fill:#B0E046;" d="M416.367,503.026H305.381c4.37-26.713,27.546-47.1,55.493-47.1  C388.822,455.926,411.997,476.311,416.367,503.026z"/>
<g>
	<path style="fill:#B8E5F4;" d="M486.321,9.85h-23.477h-11.815H440.6h-11.815h-23.477c-9.295,0-16.834,7.537-16.834,16.834   c0,2.468,0.546,4.806,1.501,6.918h-7.666H342.72c-9.295,0-16.834,7.537-16.834,16.834c0,9.295,7.538,16.834,16.834,16.834h39.589   h11.815h10.429h11.815h23.477c9.3,0,16.834-7.538,16.834-16.834c0-2.468-0.544-4.806-1.498-6.917h7.664h23.477   c9.3,0,16.834-7.538,16.834-16.834C503.155,17.387,495.621,9.85,486.321,9.85z"/>
	<circle style="fill:#B8E5F4;" cx="280.377" cy="50.435" r="16.834"/>
</g>
<path style="fill:#B0E046;" d="M275.601,371.896l-67.412-111.739h47.228l-73.225-121.375h41.373L156.354,27.378l-9.602-16.201  c-2.507-4.162-6.57-4.162-9.077,0L60.861,138.781h41.213L29.009,260.157H76.09L8.825,371.896H275.601z"/>
<g style="opacity:0.1;">
	<path style="fill:#231F20;" d="M155.394,25.757l-8.641-14.579c-2.507-4.162-6.57-4.162-9.077,0L60.861,138.781h26.495   L155.394,25.757z"/>
	<polygon style="fill:#231F20;" points="76.09,260.157 8.825,371.896 35.321,371.896 102.585,260.157  "/>
	<polygon style="fill:#231F20;" points="128.568,138.781 102.074,138.781 29.009,260.157 55.504,260.157  "/>
</g>
<path style="fill:#36CC6B;" d="M371.617,308.596h36.472l-56.549-93.732h31.951l-51.901-86.029l-7.416-12.511  c-1.937-3.213-5.075-3.213-7.011,0l-59.318,98.541h31.825l-54.342,90.275l2.085,3.456h32.19l-16.078,26.708l22.076,36.592h-44.102  l-13.84,22.989h206.017L371.617,308.596z"/>
<g style="opacity:0.1;">
	<path style="fill:#231F20;" d="M334.128,133.045l-2.539-4.209l-7.416-12.511c-1.937-3.213-5.075-3.213-7.011,0l-59.318,98.541   h27.031L334.128,133.045z"/>
	<path style="fill:#231F20;" d="M298.815,365.568l-18.258-30.263l16.078-26.708h-27.032l-16.078,26.708l22.076,36.592h21.373   C298.908,371.731,301.917,370.713,298.815,365.568z"/>
	<polygon style="fill:#231F20;" points="264.444,308.596 262.359,305.14 316.701,214.864 289.67,214.864 235.328,305.14    237.413,308.596  "/>
	<polygon style="fill:#231F20;" points="231.499,371.896 217.66,394.887 244.691,394.887 258.53,371.896  "/>
</g>
<g>
	<path style="fill:#8C6644;" d="M334.877,462.295v-67.408h-28.42v103.066C310.495,482.449,320.98,469.556,334.877,462.295z"/>
	<rect x="306.457" y="503.02" style="fill:#8C6644;" width="28.42" height="0.918"/>
</g>
<path style="fill:#36CC6B;" d="M84.403,433.372c-39.749,0-72.308,30.682-75.344,69.653h86.788  c3.735-22.811,21.185-41.008,43.614-45.832C125.671,442.539,106.115,433.372,84.403,433.372z"/>
<path style="fill:#2DA555;" d="M95.847,503.026h110.987c-4.37-26.713-27.546-47.1-55.493-47.1  C123.395,455.926,100.218,476.311,95.847,503.026z"/>
<path style="fill:#36CC6B;" d="M211.865,477.954c-4.899,0-9.531,1.139-13.649,3.159c4.305,6.488,7.309,13.913,8.618,21.912h-25.42  c-0.061,0.305-0.121,0.61-0.172,0.918h61.246C240.075,489.203,227.287,477.954,211.865,477.954z"/>
<g>
	<path style="fill:#8C6644;" d="M137.199,457.733c0.121-0.031,0.246-0.063,0.367-0.093   C137.445,457.67,137.321,457.701,137.199,457.733z"/>
	<path style="fill:#8C6644;" d="M139.461,457.194c-0.025,0.005-0.048,0.012-0.073,0.018c3.854-0.835,7.851-1.286,11.954-1.286   c1.714,0,3.409,0.078,5.083,0.229v-84.257h-28.42v75.331C132.149,450.164,135.988,453.504,139.461,457.194z"/>
	<path style="fill:#8C6644;" d="M135.116,458.317c0.103-0.031,0.207-0.063,0.31-0.095   C135.323,458.253,135.219,458.285,135.116,458.317z"/>
	<rect x="128.003" y="503.02" style="fill:#8C6644;" width="28.42" height="0.918"/>
</g>
<g>
	<path style="fill:#231F20;" d="M439.844,75.324h-97.126c-13.724,0-24.889-11.165-24.889-24.889s11.165-24.889,24.889-24.889h37.724   c0.597-13.198,11.522-23.751,24.864-23.751h81.014c13.724,0,24.889,11.165,24.889,24.889s-11.165,24.889-24.889,24.889h-21.612   C464.112,64.77,453.187,75.324,439.844,75.324z M342.718,41.656c-4.84,0-8.778,3.938-8.778,8.778s3.938,8.778,8.778,8.778h97.126   c4.84,0,8.778-3.938,8.778-8.778c0-1.238-0.263-2.45-0.783-3.602c-1.127-2.493-0.911-5.388,0.574-7.685   c1.483-2.299,4.032-3.687,6.768-3.687h31.141c4.84,0,8.778-3.938,8.778-8.778s-3.938-8.778-8.778-8.778h-81.014   c-4.84,0-8.778,3.938-8.778,8.778c0,1.235,0.264,2.447,0.786,3.602c1.127,2.493,0.911,5.388-0.574,7.685   c-1.483,2.299-4.032,3.687-6.768,3.687H342.718z"/>
	<path style="fill:#231F20;" d="M280.382,75.325c-13.724,0-24.889-11.165-24.889-24.889s11.165-24.889,24.889-24.889   c13.724,0,24.889,11.165,24.889,24.889C305.271,64.16,294.107,75.325,280.382,75.325z M280.382,41.658   c-4.84,0-8.778,3.938-8.778,8.778s3.938,8.778,8.778,8.778s8.778-3.938,8.778-8.778S285.222,41.658,280.382,41.658z"/>
	<path style="fill:#231F20;" d="M511.231,503.026c0-0.428-0.032-0.846-0.097-1.256c-1.768-20.699-11.126-39.884-26.398-54.084   c-15.513-14.425-35.731-22.369-56.926-22.369c-21.474,0-42.287,8.407-57.785,23.202c-2.992-0.422-6.047-0.649-9.151-0.649   c-6.216,0-12.234,0.885-17.941,2.524v-47.452h12.635c0.006,0,0.012,0.001,0.018,0.001c0.005,0,0.011-0.001,0.017-0.001h68.073   c2.905,0,5.586-1.565,7.015-4.096c1.429-2.531,1.383-5.634-0.117-8.121l-44.688-74.073h22.203c0.006-0.001,0.015,0,0.021,0   c4.45,0,8.056-3.606,8.056-8.056c0-1.723-0.539-3.318-1.46-4.627l-48.896-81.049h17.682c0.006,0,0.015,0,0.021,0   c4.45,0,8.056-3.606,8.056-8.056c0-1.722-0.539-3.318-1.46-4.627l-51.588-85.509l-7.447-12.562   c-2.416-4.009-6.208-6.307-10.406-6.307c-4.198,0-7.989,2.299-10.407,6.31l-59.318,98.541c-1.498,2.488-1.54,5.591-0.112,8.119   c1.43,2.528,4.109,4.092,7.013,4.092h17.573l-16.51,27.427l-62.446-103.51h27.103c0.006-0.001,0.014-0.001,0.023,0   c4.449,0,8.056-3.606,8.056-8.056c0-1.721-0.54-3.317-1.46-4.626L163.286,23.271l-9.632-16.25C150.967,2.56,146.797,0,142.214,0   s-8.752,2.56-11.44,7.023L53.959,134.627c-1.498,2.488-1.54,5.591-0.112,8.119c1.43,2.528,4.109,4.092,7.013,4.092h26.961   L22.107,256.002c-1.498,2.488-1.54,5.591-0.112,8.119c1.43,2.528,4.109,4.092,7.013,4.092h32.23h0.599L1.923,367.742   c-1.498,2.488-1.54,5.591-0.112,8.118c1.43,2.528,4.109,4.092,7.013,4.092h57.759c0.006,0,0.012,0.001,0.018,0.001   c0.005,0,0.011-0.001,0.017-0.001h53.329v53.364c-11.041-5.19-23.178-8-35.545-8c-21.196,0-41.413,7.943-56.925,22.369   C12.052,462.029,2.659,481.46,1.027,502.4c-0.029,0.366-0.023,0.731-0.001,1.095c-0.009,0.149-0.023,0.298-0.023,0.45   c0,4.45,3.606,8.056,8.056,8.056h118.944h28.42h24.818h61.246h63.969h28.42h168.278c4.45,0,8.056-3.606,8.056-8.056   c0-0.085-0.01-0.166-0.013-0.251C511.216,503.473,511.231,503.25,511.231,503.026z M248.711,495.888   c-5.421-15.401-19.971-25.99-36.847-25.99c-3.675,0-7.258,0.505-10.718,1.493c-9.176-11.232-22.044-19.167-36.667-22.175v-69.263   h52.766l-6.489,10.779c-1.498,2.488-1.54,5.591-0.112,8.119c1.43,2.529,4.108,4.092,7.013,4.092H298.4v92.946L248.711,495.888   L248.711,495.888z M136.06,379.952h12.308v67.984c-2.085,0.093-4.143,0.293-6.174,0.579c-1.956-1.87-4.005-3.649-6.134-5.324   C136.06,443.191,136.06,379.952,136.06,379.952z M191.039,484.765c0.14,0.274,0.292,0.542,0.465,0.802   c1.979,2.982,3.6,6.125,4.856,9.403h-14.945h-24.99h-28.42h-21.656c5.317-13.799,16.878-24.683,31.199-28.972l0,0l0.102-0.031   c0.525-0.156,1.054-0.302,1.586-0.439l0.286-0.072c0.003-0.001,0.006-0.002,0.01-0.003c0.513-0.13,1.029-0.252,1.548-0.365   c0.005-0.001,0.01-0.001,0.015-0.002c1.797-0.389,3.608-0.676,5.426-0.859c0.01-0.001,0.019-0.002,0.029-0.003   c0.545-0.055,1.089-0.097,1.635-0.133c0.151-0.01,0.303-0.018,0.454-0.026c0.426-0.024,0.853-0.043,1.28-0.055   c0.244-0.006,0.488-0.011,0.731-0.014c0.363-0.005,0.725-0.009,1.088-0.005c0.269,0.002,0.537,0.009,0.805,0.015   c0.361,0.009,0.722,0.018,1.083,0.035c0.235,0.011,0.468,0.027,0.702,0.041c0.402,0.025,0.803,0.05,1.206,0.085   C170.19,465.417,183.062,473.164,191.039,484.765z M427.811,441.428c32.067,0,59.555,22.902,66.059,53.542h-71.036   c-5.041-18.363-17.767-33.101-34.335-40.934C399.869,445.839,413.451,441.428,427.811,441.428z M370.901,465.023   c0.054,0.013,0.104,0.033,0.159,0.045c15.975,3.436,29.054,14.96,34.808,29.9h-70.992h-19.012   c4.174-10.913,12.251-20.053,22.743-25.535c0.19-0.099,0.363-0.22,0.542-0.333c6.546-3.286,13.932-5.12,21.724-5.12   C364.308,463.982,367.661,464.345,370.901,465.023z M326.821,457.552c-4.504,2.8-8.637,6.145-12.308,9.96v-64.57h12.308   L326.821,457.552L326.821,457.552z M294.223,222.92h33.321c4.45,0,8.056-3.606,8.056-8.056s-3.606-8.056-8.056-8.056h-37.876   h-10.46h-7.113l48.545-80.645l4.051,6.832l44.531,73.812H351.54c-2.905,0-5.586,1.565-7.015,4.096   c-1.429,2.531-1.383,5.634,0.117,8.122l49.177,81.515h-22.203c-2.905,0-5.586,1.565-7.015,4.096   c-1.429,2.531-1.383,5.634,0.117,8.121l44.688,74.073h-40.32l4.008-7.437c2.111-3.917,0.647-8.802-3.27-10.914   c-3.916-2.109-8.802-0.647-10.914,3.27l-8.128,15.082h-15.907H319.04l18.723-34.741c2.111-3.916,0.647-8.802-3.27-10.914   c-3.917-2.11-8.803-0.647-10.914,3.27l-22.842,42.386h-68.825l4.14-6.878H275.6c2.905,0,5.586-1.565,7.015-4.096   c1.429-2.53,1.383-5.634-0.117-8.121l-19.568-32.435l11.226-18.648h71.648c4.45,0,8.056-3.606,8.056-8.056   s-3.606-8.056-8.056-8.056h-76.201h-9.013h-13.091L294.223,222.92z M251.68,316.652h3.669l-1.832,3.044L251.68,316.652z    M235.32,289.532l-12.861-21.319h25.695L235.32,289.532z M80.643,268.213h51.529c0.006,0,0.012,0.001,0.018,0.001   c0.005,0,0.011-0.001,0.017-0.001h50.916c4.45,0,8.056-3.606,8.056-8.056c0-4.45-3.606-8.056-8.056-8.056h-37.434l13.629-25.292   c2.111-3.916,0.647-8.802-3.271-10.913c-3.914-2.11-8.801-0.646-10.913,3.271l-17.749,32.935H76.09H61.239H43.26l65.716-109.165   c1.498-2.488,1.54-5.591,0.112-8.119c-1.43-2.528-4.109-4.092-7.013-4.092H75.113l67.082-111.438l7.262,12.251l59.839,99.186   h-14.152h-12.953h-54.717c-4.45,0-8.056,3.606-8.056,8.056c0,4.45,3.606,8.056,8.056,8.056h50.169L241.148,252.1h-32.959   c-2.906,0-5.587,1.565-7.015,4.096c-1.429,2.531-1.383,5.634,0.117,8.122l60.04,99.522h-29.833h-75.074h-20.75l8.799-16.328   c2.111-3.916,0.647-8.802-3.271-10.913c-3.916-2.11-8.801-0.646-10.913,3.271l-12.917,23.97h-37.27l24.748-45.92   c2.111-3.916,0.647-8.802-3.27-10.914c-3.916-2.11-8.802-0.648-10.914,3.27L61.799,363.84H23.077L80.643,268.213z M84.403,441.428   c14.13,0,27.503,4.278,38.758,12.225c0.063,0.047,0.12,0.102,0.185,0.148c0.113,0.081,0.221,0.168,0.335,0.249   c-16.552,7.837-29.259,22.569-34.296,40.92H18.345C24.851,464.33,52.34,441.428,84.403,441.428z M213.553,495.888   c-0.88-3.402-2.033-6.676-3.415-9.815c0.571-0.042,1.147-0.064,1.727-0.064c7.797,0,14.749,3.842,18.914,9.879h-17.227V495.888z"/>
</g>
<g>
</g>
<g>
</g>
<g>
</g>
<g>
</g>
<g>
</g>
<g>
</g>
<g>
</g>
<g>
</g>
<g>
</g>
<g>
</g>
<g>
</g>
<g>
</g>
<g>
</g>
<g>
</g>
<g>
</g>
</svg>
