<svg xmlns="http://www.w3.org/2000/svg" viewBox="0 0 48 48"><defs><style>.cls-1{fill:#9dcc6b;}.cls-2{fill:#b5e08c;}.cls-3{fill:#dad7e5;}.cls-4{fill:#edebf2;}.cls-5{fill:#fc6;}.cls-6{fill:#ffde76;}</style></defs><title>7. mountain</title><g id="_7._mountain" data-name="7. mountain"><path class="cls-1" d="M46,47H6L26,23C27.11,24.33,41.77,41.94,46,47Z"/><path class="cls-2" d="M44.33,45H19.54a4,4,0,0,1-3.07-6.56L27.67,25C30.07,27.88,33.37,31.83,44.33,45Z"/><path class="cls-2" d="M32.35,30.62c-2.24-.63-2.63.88-4.56.88s-1.8-1-3.6-1-1.79,1-3.59,1c-.45,0-.84.59,6.07-7.7Z"/><path class="cls-3" d="M31.4,32.5c-1.81,0-1.81,1-3.61,1s-1.8-1-3.6-1-1.79,1-3.59,1c-1.4,0-1.71-.6-2.62-.87L26,23C38.77,38.3,34.53,32.5,31.4,32.5Z"/><path class="cls-4" d="M32.37,30.65c-.88.27-1.21.85-2.58.85-2,0-1.72-1.14-4.07-1a1.22,1.22,0,0,1-1-2L27.67,25Z"/><path class="cls-1" d="M19.75,30.5C17,33.78,8.42,44.1,6,47H1V44L16,26Z"/><path class="cls-2" d="M19.75,30.5C17.43,33.3,20,30.21,7.67,45A1.68,1.68,0,0,1,6,43.33c0-1.78-.25-1,11.67-15.33Z"/><path class="cls-1" d="M47,37.2V47c-1.4,0,.41,1.69-10.58-11.5L41,30Z"/><path class="cls-2" d="M47,37.2v6.47l-4.59-5.51a5,5,0,0,1,0-6.46Z"/><path class="cls-5" d="M39,10a3,3,0,1,1-3.87-2.87A3,3,0,0,1,39,10Z"/><path class="cls-6" d="M38.87,10.87a3,3,0,0,1-3.74-3.74A3,3,0,0,1,38.87,10.87Z"/><path class="cls-6" d="M36,4c-1.2,0-1-1.17-1-3a1,1,0,0,1,2,0C37,2.85,37.2,4,36,4Z"/><path class="cls-6" d="M28.93,4.34a1,1,0,0,1,1.41-1.41c1.31,1.3,2.27,2,1.42,2.83S29.8,5.21,28.93,4.34Z"/><path class="cls-6" d="M29,11c-1.85,0-3,.2-3-1s1.17-1,3-1A1,1,0,0,1,29,11Z"/><path class="cls-6" d="M28.93,15.66c1.3-1.31,2-2.27,2.83-1.42s-.12,1.54-1.42,2.83A1,1,0,0,1,28.93,15.66Z"/><path class="cls-6" d="M36,20c-1.2,0-1-1.17-1-3a1,1,0,0,1,2,0C37,18.85,37.2,20,36,20Z"/><path class="cls-6" d="M40.24,15.66a1,1,0,0,1,1.42-1.42c1.3,1.31,2.26,2,1.41,2.83S41.11,16.52,40.24,15.66Z"/><path class="cls-6" d="M45,11c-1.85,0-3,.2-3-1s1.17-1,3-1A1,1,0,0,1,45,11Z"/><path class="cls-6" d="M40.24,4.34c1.31-1.3,2-2.26,2.83-1.41S43,4.46,41.66,5.76A1,1,0,0,1,40.24,4.34Z"/><path class="cls-3" d="M21,17.45c-1.35.8-1.31.55-15,.55-4,0-4-6,0-6,.16,0,0-.1,0-1a6,6,0,0,1,11.93-.85C22.36,8.85,25.07,15.11,21,17.45Z"/><path class="cls-4" d="M21,17.45c-1.35.8-1.31.55-15,.55a1,1,0,0,1-.24,0c-2.07-2.34.59-5.55,2.33-5C6.9,6.45,16.88,2.53,17.93,10.15,22.36,8.85,25.07,15.12,21,17.45Z"/></g></svg>